<mxfile host="app.diagrams.net" modified="2023-10-29T18:26:35.717Z" agent="Mozilla/5.0 (Windows NT 10.0; Win64; x64) AppleWebKit/537.36 (KHTML, like Gecko) Chrome/118.0.0.0 Safari/537.36" etag="8aZ66Zycwr1FQmLqJ7KN" version="22.0.8" type="device">
  <diagram name="Page-1" id="2YBvvXClWsGukQMizWep">
    <mxGraphModel dx="832" dy="372" grid="1" gridSize="10" guides="1" tooltips="1" connect="1" arrows="1" fold="1" page="1" pageScale="1" pageWidth="850" pageHeight="1100" math="0" shadow="0">
      <root>
        <mxCell id="0" />
        <mxCell id="1" parent="0" />
        <mxCell id="_yW5-l0XURS9ANHYG6i6-1" value=":ApiCtrl" style="shape=umlLifeline;perimeter=lifelinePerimeter;whiteSpace=wrap;html=1;container=0;dropTarget=0;collapsible=0;recursiveResize=0;outlineConnect=0;portConstraint=eastwest;newEdgeStyle={&quot;edgeStyle&quot;:&quot;elbowEdgeStyle&quot;,&quot;elbow&quot;:&quot;vertical&quot;,&quot;curved&quot;:0,&quot;rounded&quot;:0};" vertex="1" parent="1">
          <mxGeometry x="300" y="220" width="100" height="380" as="geometry" />
        </mxCell>
        <mxCell id="_yW5-l0XURS9ANHYG6i6-2" value="" style="html=1;points=[];perimeter=orthogonalPerimeter;outlineConnect=0;targetShapes=umlLifeline;portConstraint=eastwest;newEdgeStyle={&quot;edgeStyle&quot;:&quot;elbowEdgeStyle&quot;,&quot;elbow&quot;:&quot;vertical&quot;,&quot;curved&quot;:0,&quot;rounded&quot;:0};" vertex="1" parent="_yW5-l0XURS9ANHYG6i6-1">
          <mxGeometry x="45" y="70" width="10" height="270" as="geometry" />
        </mxCell>
        <mxCell id="_yW5-l0XURS9ANHYG6i6-3" value="GetPatient(UUID)" style="html=1;verticalAlign=bottom;startArrow=oval;endArrow=block;startSize=8;edgeStyle=elbowEdgeStyle;elbow=vertical;curved=0;rounded=0;" edge="1" parent="_yW5-l0XURS9ANHYG6i6-1" target="_yW5-l0XURS9ANHYG6i6-2">
          <mxGeometry relative="1" as="geometry">
            <mxPoint x="-210" y="70" as="sourcePoint" />
          </mxGeometry>
        </mxCell>
        <mxCell id="_yW5-l0XURS9ANHYG6i6-4" value=":DB Ctrl" style="shape=umlLifeline;perimeter=lifelinePerimeter;whiteSpace=wrap;html=1;container=0;dropTarget=0;collapsible=0;recursiveResize=0;outlineConnect=0;portConstraint=eastwest;newEdgeStyle={&quot;edgeStyle&quot;:&quot;elbowEdgeStyle&quot;,&quot;elbow&quot;:&quot;vertical&quot;,&quot;curved&quot;:0,&quot;rounded&quot;:0};" vertex="1" parent="1">
          <mxGeometry x="600" y="225" width="100" height="600" as="geometry" />
        </mxCell>
        <mxCell id="_yW5-l0XURS9ANHYG6i6-5" value="" style="html=1;points=[];perimeter=orthogonalPerimeter;outlineConnect=0;targetShapes=umlLifeline;portConstraint=eastwest;newEdgeStyle={&quot;edgeStyle&quot;:&quot;elbowEdgeStyle&quot;,&quot;elbow&quot;:&quot;vertical&quot;,&quot;curved&quot;:0,&quot;rounded&quot;:0};" vertex="1" parent="_yW5-l0XURS9ANHYG6i6-4">
          <mxGeometry x="45" y="80" width="10" height="430" as="geometry" />
        </mxCell>
        <mxCell id="_yW5-l0XURS9ANHYG6i6-8" value="" style="shape=umlLifeline;perimeter=lifelinePerimeter;whiteSpace=wrap;html=1;container=1;dropTarget=0;collapsible=0;recursiveResize=0;outlineConnect=0;portConstraint=eastwest;newEdgeStyle={&quot;curved&quot;:0,&quot;rounded&quot;:0};participant=umlActor;" vertex="1" parent="1">
          <mxGeometry x="60" y="215" width="20" height="395" as="geometry" />
        </mxCell>
        <mxCell id="_yW5-l0XURS9ANHYG6i6-9" value="Patient" style="text;html=1;align=center;verticalAlign=middle;resizable=0;points=[];autosize=1;strokeColor=none;fillColor=none;" vertex="1" parent="1">
          <mxGeometry x="40" y="190" width="60" height="30" as="geometry" />
        </mxCell>
        <mxCell id="_yW5-l0XURS9ANHYG6i6-10" value=":Patient" style="shape=umlLifeline;perimeter=lifelinePerimeter;whiteSpace=wrap;html=1;container=0;dropTarget=0;collapsible=0;recursiveResize=0;outlineConnect=0;portConstraint=eastwest;newEdgeStyle={&quot;edgeStyle&quot;:&quot;elbowEdgeStyle&quot;,&quot;elbow&quot;:&quot;vertical&quot;,&quot;curved&quot;:0,&quot;rounded&quot;:0};" vertex="1" parent="1">
          <mxGeometry x="740" y="225" width="100" height="335" as="geometry" />
        </mxCell>
        <mxCell id="_yW5-l0XURS9ANHYG6i6-11" value="" style="html=1;points=[];perimeter=orthogonalPerimeter;outlineConnect=0;targetShapes=umlLifeline;portConstraint=eastwest;newEdgeStyle={&quot;edgeStyle&quot;:&quot;elbowEdgeStyle&quot;,&quot;elbow&quot;:&quot;vertical&quot;,&quot;curved&quot;:0,&quot;rounded&quot;:0};" vertex="1" parent="_yW5-l0XURS9ANHYG6i6-10">
          <mxGeometry x="45" y="80" width="10" height="180" as="geometry" />
        </mxCell>
        <mxCell id="_yW5-l0XURS9ANHYG6i6-12" value="return appointments" style="html=1;verticalAlign=bottom;endArrow=open;dashed=1;endSize=8;edgeStyle=elbowEdgeStyle;elbow=vertical;curved=0;rounded=0;" edge="1" parent="1">
          <mxGeometry x="-0.0002" relative="1" as="geometry">
            <mxPoint x="69.92857142857144" y="550" as="targetPoint" />
            <Array as="points">
              <mxPoint x="305.12" y="550" />
            </Array>
            <mxPoint x="350.12" y="550" as="sourcePoint" />
            <mxPoint as="offset" />
          </mxGeometry>
        </mxCell>
        <mxCell id="_yW5-l0XURS9ANHYG6i6-15" value="GetPatient(UUID)" style="html=1;verticalAlign=bottom;endArrow=block;edgeStyle=elbowEdgeStyle;elbow=vertical;curved=0;rounded=0;" edge="1" parent="1" target="_yW5-l0XURS9ANHYG6i6-21">
          <mxGeometry relative="1" as="geometry">
            <mxPoint x="350" y="310" as="sourcePoint" />
            <Array as="points">
              <mxPoint x="435" y="310" />
            </Array>
            <mxPoint x="649.5" y="310" as="targetPoint" />
          </mxGeometry>
        </mxCell>
        <mxCell id="_yW5-l0XURS9ANHYG6i6-16" value="cancelAppointment( AppointmentID)" style="html=1;verticalAlign=bottom;endArrow=block;edgeStyle=elbowEdgeStyle;elbow=vertical;curved=0;rounded=0;" edge="1" parent="1" target="_yW5-l0XURS9ANHYG6i6-11">
          <mxGeometry x="0.4588" relative="1" as="geometry">
            <mxPoint x="360" y="470" as="sourcePoint" />
            <Array as="points">
              <mxPoint x="455" y="470" />
            </Array>
            <mxPoint x="799.5" y="470" as="targetPoint" />
            <mxPoint as="offset" />
          </mxGeometry>
        </mxCell>
        <mxCell id="_yW5-l0XURS9ANHYG6i6-17" value="UpdatePatientAppointments(Patient)" style="html=1;verticalAlign=bottom;endArrow=block;edgeStyle=elbowEdgeStyle;elbow=vertical;curved=0;rounded=0;" edge="1" parent="1" target="_yW5-l0XURS9ANHYG6i6-4">
          <mxGeometry x="-0.1019" relative="1" as="geometry">
            <mxPoint x="360" y="510" as="sourcePoint" />
            <Array as="points">
              <mxPoint x="445" y="510" />
            </Array>
            <mxPoint x="549.4999999999998" y="510" as="targetPoint" />
            <mxPoint as="offset" />
          </mxGeometry>
        </mxCell>
        <mxCell id="_yW5-l0XURS9ANHYG6i6-18" value="return PatientID" style="html=1;verticalAlign=bottom;endArrow=block;edgeStyle=elbowEdgeStyle;elbow=vertical;curved=0;rounded=0;" edge="1" parent="1" source="_yW5-l0XURS9ANHYG6i6-21">
          <mxGeometry relative="1" as="geometry">
            <mxPoint x="540" y="340" as="sourcePoint" />
            <Array as="points">
              <mxPoint x="450" y="340" />
            </Array>
            <mxPoint x="360" y="340" as="targetPoint" />
          </mxGeometry>
        </mxCell>
        <mxCell id="_yW5-l0XURS9ANHYG6i6-19" value="return&amp;nbsp; bool" style="html=1;verticalAlign=bottom;endArrow=open;dashed=1;endSize=8;edgeStyle=elbowEdgeStyle;elbow=vertical;curved=0;rounded=0;" edge="1" parent="1">
          <mxGeometry x="0.4146" relative="1" as="geometry">
            <mxPoint x="360" y="530" as="targetPoint" />
            <Array as="points">
              <mxPoint x="640" y="530" />
            </Array>
            <mxPoint x="510" y="530" as="sourcePoint" />
            <mxPoint as="offset" />
          </mxGeometry>
        </mxCell>
        <mxCell id="_yW5-l0XURS9ANHYG6i6-20" value=":Active DB" style="shape=umlLifeline;perimeter=lifelinePerimeter;whiteSpace=wrap;html=1;container=0;dropTarget=0;collapsible=0;recursiveResize=0;outlineConnect=0;portConstraint=eastwest;newEdgeStyle={&quot;edgeStyle&quot;:&quot;elbowEdgeStyle&quot;,&quot;elbow&quot;:&quot;vertical&quot;,&quot;curved&quot;:0,&quot;rounded&quot;:0};" vertex="1" parent="1">
          <mxGeometry x="470" y="225" width="100" height="355" as="geometry" />
        </mxCell>
        <mxCell id="_yW5-l0XURS9ANHYG6i6-21" value="" style="html=1;points=[];perimeter=orthogonalPerimeter;outlineConnect=0;targetShapes=umlLifeline;portConstraint=eastwest;newEdgeStyle={&quot;edgeStyle&quot;:&quot;elbowEdgeStyle&quot;,&quot;elbow&quot;:&quot;vertical&quot;,&quot;curved&quot;:0,&quot;rounded&quot;:0};" vertex="1" parent="_yW5-l0XURS9ANHYG6i6-20">
          <mxGeometry x="45" y="80" width="10" height="230" as="geometry" />
        </mxCell>
        <mxCell id="_yW5-l0XURS9ANHYG6i6-24" value="return Patient" style="html=1;verticalAlign=bottom;endArrow=block;edgeStyle=elbowEdgeStyle;elbow=vertical;curved=0;rounded=0;" edge="1" parent="1">
          <mxGeometry relative="1" as="geometry">
            <mxPoint x="650" y="380" as="sourcePoint" />
            <Array as="points">
              <mxPoint x="560.29" y="380" />
            </Array>
            <mxPoint x="360.21857142857147" y="380" as="targetPoint" />
          </mxGeometry>
        </mxCell>
        <mxCell id="_yW5-l0XURS9ANHYG6i6-25" value="CancelAppointment(UUID , AppointmentID)" style="html=1;verticalAlign=bottom;startArrow=oval;endArrow=block;startSize=8;edgeStyle=elbowEdgeStyle;elbow=vertical;curved=0;rounded=0;" edge="1" parent="1">
          <mxGeometry relative="1" as="geometry">
            <mxPoint x="79.99857142857144" y="410.28571428571433" as="sourcePoint" />
            <mxPoint x="350.07" y="410" as="targetPoint" />
          </mxGeometry>
        </mxCell>
        <mxCell id="_yW5-l0XURS9ANHYG6i6-27" value="GetPatient(UUID)" style="html=1;verticalAlign=bottom;endArrow=block;edgeStyle=elbowEdgeStyle;elbow=vertical;curved=0;rounded=0;" edge="1" parent="1">
          <mxGeometry relative="1" as="geometry">
            <mxPoint x="360" y="420" as="sourcePoint" />
            <Array as="points">
              <mxPoint x="445" y="420" />
            </Array>
            <mxPoint x="520" y="420" as="targetPoint" />
          </mxGeometry>
        </mxCell>
        <mxCell id="_yW5-l0XURS9ANHYG6i6-28" value="return PatientID" style="html=1;verticalAlign=bottom;endArrow=block;edgeStyle=elbowEdgeStyle;elbow=vertical;curved=0;rounded=0;" edge="1" parent="1" source="_yW5-l0XURS9ANHYG6i6-21">
          <mxGeometry relative="1" as="geometry">
            <mxPoint x="659.5" y="440" as="sourcePoint" />
            <Array as="points">
              <mxPoint x="450" y="440" />
            </Array>
            <mxPoint x="360" y="440" as="targetPoint" />
          </mxGeometry>
        </mxCell>
        <mxCell id="_yW5-l0XURS9ANHYG6i6-30" value="GetPatientByID(Patient ID)" style="html=1;verticalAlign=bottom;endArrow=block;edgeStyle=elbowEdgeStyle;elbow=vertical;curved=0;rounded=0;" edge="1" parent="1" target="_yW5-l0XURS9ANHYG6i6-4">
          <mxGeometry relative="1" as="geometry">
            <mxPoint x="360" y="360" as="sourcePoint" />
            <Array as="points">
              <mxPoint x="445" y="360" />
            </Array>
            <mxPoint x="525" y="360" as="targetPoint" />
          </mxGeometry>
        </mxCell>
        <mxCell id="_yW5-l0XURS9ANHYG6i6-31" value="return Patient" style="html=1;verticalAlign=bottom;endArrow=block;edgeStyle=elbowEdgeStyle;elbow=vertical;curved=0;rounded=0;" edge="1" parent="1">
          <mxGeometry relative="1" as="geometry">
            <mxPoint x="349.78" y="390" as="sourcePoint" />
            <Array as="points">
              <mxPoint x="260.06999999999994" y="390" />
            </Array>
            <mxPoint x="70" y="390" as="targetPoint" />
          </mxGeometry>
        </mxCell>
      </root>
    </mxGraphModel>
  </diagram>
</mxfile>
